<mxfile host="Electron" modified="2023-09-11T06:27:16.932Z" agent="Mozilla/5.0 (Windows NT 10.0; Win64; x64) AppleWebKit/537.36 (KHTML, like Gecko) draw.io/21.6.8 Chrome/114.0.5735.289 Electron/25.5.0 Safari/537.36" etag="vEZCFKtUaliKaRmL5MJ4" version="21.6.8" type="device">
  <diagram name="Page-1" id="o0QKmrjzKOirlsZqOsIk">
    <mxGraphModel dx="1562" dy="909" grid="1" gridSize="10" guides="1" tooltips="1" connect="1" arrows="1" fold="1" page="1" pageScale="1" pageWidth="1654" pageHeight="1169" math="0" shadow="0">
      <root>
        <mxCell id="0" />
        <mxCell id="1" parent="0" />
        <mxCell id="PFHBbTJMaF5WKpqHNHb6-19" value="AciesCore Production Environment" style="rounded=0;whiteSpace=wrap;html=1;verticalAlign=top;" vertex="1" parent="1">
          <mxGeometry x="440" y="250" width="680" height="560" as="geometry" />
        </mxCell>
        <mxCell id="PFHBbTJMaF5WKpqHNHb6-58" value="Organization B" style="whiteSpace=wrap;html=1;verticalAlign=top;" vertex="1" parent="1">
          <mxGeometry x="995" y="275" width="85" height="525" as="geometry" />
        </mxCell>
        <mxCell id="PFHBbTJMaF5WKpqHNHb6-57" value="Organization A" style="whiteSpace=wrap;html=1;verticalAlign=top;" vertex="1" parent="1">
          <mxGeometry x="485" y="275" width="500" height="525" as="geometry" />
        </mxCell>
        <mxCell id="PFHBbTJMaF5WKpqHNHb6-1" value="AciesOne&lt;br&gt;Production 18.4" style="rounded=0;whiteSpace=wrap;html=1;" vertex="1" parent="1">
          <mxGeometry x="420" y="120" width="130" height="70" as="geometry" />
        </mxCell>
        <mxCell id="PFHBbTJMaF5WKpqHNHb6-2" value="DB" style="shape=cylinder3;whiteSpace=wrap;html=1;boundedLbl=1;backgroundOutline=1;size=15;" vertex="1" parent="1">
          <mxGeometry x="340" y="90" width="60" height="80" as="geometry" />
        </mxCell>
        <mxCell id="PFHBbTJMaF5WKpqHNHb6-3" value="" style="endArrow=none;dashed=1;html=1;rounded=0;" edge="1" parent="1" source="PFHBbTJMaF5WKpqHNHb6-1" target="PFHBbTJMaF5WKpqHNHb6-2">
          <mxGeometry width="50" height="50" relative="1" as="geometry">
            <mxPoint x="790" y="390" as="sourcePoint" />
            <mxPoint x="840" y="340" as="targetPoint" />
          </mxGeometry>
        </mxCell>
        <mxCell id="PFHBbTJMaF5WKpqHNHb6-10" value="AciesOne&lt;br&gt;Pre-prod 18.4" style="rounded=0;whiteSpace=wrap;html=1;" vertex="1" parent="1">
          <mxGeometry x="660" y="120" width="130" height="70" as="geometry" />
        </mxCell>
        <mxCell id="PFHBbTJMaF5WKpqHNHb6-11" value="DB" style="shape=cylinder3;whiteSpace=wrap;html=1;boundedLbl=1;backgroundOutline=1;size=15;" vertex="1" parent="1">
          <mxGeometry x="580" y="90" width="60" height="80" as="geometry" />
        </mxCell>
        <mxCell id="PFHBbTJMaF5WKpqHNHb6-12" value="" style="endArrow=none;dashed=1;html=1;rounded=0;" edge="1" parent="1" source="PFHBbTJMaF5WKpqHNHb6-10" target="PFHBbTJMaF5WKpqHNHb6-11">
          <mxGeometry width="50" height="50" relative="1" as="geometry">
            <mxPoint x="990" y="390" as="sourcePoint" />
            <mxPoint x="1040" y="340" as="targetPoint" />
          </mxGeometry>
        </mxCell>
        <mxCell id="PFHBbTJMaF5WKpqHNHb6-13" value="AciesOne&lt;br&gt;Test 18.5" style="rounded=0;whiteSpace=wrap;html=1;" vertex="1" parent="1">
          <mxGeometry x="887" y="120" width="130" height="70" as="geometry" />
        </mxCell>
        <mxCell id="PFHBbTJMaF5WKpqHNHb6-14" value="DB" style="shape=cylinder3;whiteSpace=wrap;html=1;boundedLbl=1;backgroundOutline=1;size=15;" vertex="1" parent="1">
          <mxGeometry x="810" y="90" width="60" height="80" as="geometry" />
        </mxCell>
        <mxCell id="PFHBbTJMaF5WKpqHNHb6-15" value="" style="endArrow=none;dashed=1;html=1;rounded=0;" edge="1" parent="1" source="PFHBbTJMaF5WKpqHNHb6-13" target="PFHBbTJMaF5WKpqHNHb6-14">
          <mxGeometry width="50" height="50" relative="1" as="geometry">
            <mxPoint x="1190" y="390" as="sourcePoint" />
            <mxPoint x="1240" y="340" as="targetPoint" />
          </mxGeometry>
        </mxCell>
        <mxCell id="PFHBbTJMaF5WKpqHNHb6-16" value="" style="endArrow=none;html=1;rounded=0;strokeWidth=4;exitX=0;exitY=0;exitDx=0;exitDy=0;" edge="1" parent="1" source="PFHBbTJMaF5WKpqHNHb6-47">
          <mxGeometry width="50" height="50" relative="1" as="geometry">
            <mxPoint x="240" y="220" as="sourcePoint" />
            <mxPoint x="1120" y="220" as="targetPoint" />
          </mxGeometry>
        </mxCell>
        <mxCell id="PFHBbTJMaF5WKpqHNHb6-17" value="AciesCore&lt;br&gt;Dev Environment" style="rounded=0;whiteSpace=wrap;html=1;verticalAlign=middle;horizontal=0;" vertex="1" parent="1">
          <mxGeometry x="240" y="250" width="80" height="560" as="geometry" />
        </mxCell>
        <mxCell id="PFHBbTJMaF5WKpqHNHb6-18" value="AciesCore&lt;br&gt;Test Environment" style="rounded=0;whiteSpace=wrap;html=1;verticalAlign=middle;horizontal=0;" vertex="1" parent="1">
          <mxGeometry x="340" y="250" width="80" height="560" as="geometry" />
        </mxCell>
        <mxCell id="PFHBbTJMaF5WKpqHNHb6-24" value="BOM Service" style="shape=hexagon;perimeter=hexagonPerimeter2;whiteSpace=wrap;html=1;fixedSize=1;horizontal=0;verticalAlign=top;spacingTop=6;" vertex="1" parent="1">
          <mxGeometry x="450" y="330" width="660" height="150" as="geometry" />
        </mxCell>
        <mxCell id="PFHBbTJMaF5WKpqHNHb6-25" value="Master Data Service" style="shape=hexagon;perimeter=hexagonPerimeter2;whiteSpace=wrap;html=1;fixedSize=1;horizontal=0;verticalAlign=top;spacingTop=6;" vertex="1" parent="1">
          <mxGeometry x="450" y="500" width="660" height="190" as="geometry" />
        </mxCell>
        <mxCell id="PFHBbTJMaF5WKpqHNHb6-26" value="Service X" style="shape=hexagon;perimeter=hexagonPerimeter2;whiteSpace=wrap;html=1;fixedSize=1;horizontal=0;verticalAlign=top;spacingTop=6;" vertex="1" parent="1">
          <mxGeometry x="450" y="700" width="660" height="70" as="geometry" />
        </mxCell>
        <mxCell id="PFHBbTJMaF5WKpqHNHb6-21" value="Account A" style="rounded=1;whiteSpace=wrap;html=1;verticalAlign=top;opacity=50;" vertex="1" parent="1">
          <mxGeometry x="490" y="300" width="260" height="490" as="geometry" />
        </mxCell>
        <mxCell id="PFHBbTJMaF5WKpqHNHb6-22" value="Account B" style="rounded=1;whiteSpace=wrap;html=1;verticalAlign=top;opacity=50;" vertex="1" parent="1">
          <mxGeometry x="760" y="300" width="220" height="490" as="geometry" />
        </mxCell>
        <mxCell id="PFHBbTJMaF5WKpqHNHb6-23" value="Account C" style="rounded=1;whiteSpace=wrap;html=1;verticalAlign=top;opacity=50;" vertex="1" parent="1">
          <mxGeometry x="1002" y="300" width="70" height="490" as="geometry" />
        </mxCell>
        <mxCell id="PFHBbTJMaF5WKpqHNHb6-27" value="Engine 1" style="rhombus;whiteSpace=wrap;html=1;" vertex="1" parent="1">
          <mxGeometry x="520" y="365" width="80" height="80" as="geometry" />
        </mxCell>
        <mxCell id="PFHBbTJMaF5WKpqHNHb6-28" value="Engine 2" style="rhombus;whiteSpace=wrap;html=1;" vertex="1" parent="1">
          <mxGeometry x="630" y="365" width="80" height="80" as="geometry" />
        </mxCell>
        <mxCell id="PFHBbTJMaF5WKpqHNHb6-31" value="Store 1" style="ellipse;whiteSpace=wrap;html=1;aspect=fixed;" vertex="1" parent="1">
          <mxGeometry x="500" y="570" width="80" height="80" as="geometry" />
        </mxCell>
        <mxCell id="PFHBbTJMaF5WKpqHNHb6-32" value="Store 2" style="ellipse;whiteSpace=wrap;html=1;aspect=fixed;" vertex="1" parent="1">
          <mxGeometry x="580" y="510" width="80" height="80" as="geometry" />
        </mxCell>
        <mxCell id="PFHBbTJMaF5WKpqHNHb6-33" value="Store 3" style="ellipse;whiteSpace=wrap;html=1;aspect=fixed;" vertex="1" parent="1">
          <mxGeometry x="660" y="570" width="80" height="80" as="geometry" />
        </mxCell>
        <mxCell id="PFHBbTJMaF5WKpqHNHb6-34" value="Engine 2A" style="rhombus;whiteSpace=wrap;html=1;" vertex="1" parent="1">
          <mxGeometry x="857" y="365" width="80" height="80" as="geometry" />
        </mxCell>
        <mxCell id="PFHBbTJMaF5WKpqHNHb6-35" value="Store 3A" style="ellipse;whiteSpace=wrap;html=1;aspect=fixed;" vertex="1" parent="1">
          <mxGeometry x="887" y="570" width="80" height="80" as="geometry" />
        </mxCell>
        <mxCell id="PFHBbTJMaF5WKpqHNHb6-36" value="" style="endArrow=none;dashed=1;html=1;rounded=0;" edge="1" parent="1" source="PFHBbTJMaF5WKpqHNHb6-32" target="PFHBbTJMaF5WKpqHNHb6-27">
          <mxGeometry width="50" height="50" relative="1" as="geometry">
            <mxPoint x="510" y="140" as="sourcePoint" />
            <mxPoint x="530" y="120" as="targetPoint" />
          </mxGeometry>
        </mxCell>
        <mxCell id="PFHBbTJMaF5WKpqHNHb6-37" value="" style="endArrow=none;dashed=1;html=1;rounded=0;" edge="1" parent="1" source="PFHBbTJMaF5WKpqHNHb6-33" target="PFHBbTJMaF5WKpqHNHb6-28">
          <mxGeometry width="50" height="50" relative="1" as="geometry">
            <mxPoint x="617" y="502" as="sourcePoint" />
            <mxPoint x="591" y="429" as="targetPoint" />
          </mxGeometry>
        </mxCell>
        <mxCell id="PFHBbTJMaF5WKpqHNHb6-38" value="" style="endArrow=none;dashed=1;html=1;rounded=0;" edge="1" parent="1" source="PFHBbTJMaF5WKpqHNHb6-35" target="PFHBbTJMaF5WKpqHNHb6-34">
          <mxGeometry width="50" height="50" relative="1" as="geometry">
            <mxPoint x="706" y="550" as="sourcePoint" />
            <mxPoint x="694" y="436" as="targetPoint" />
          </mxGeometry>
        </mxCell>
        <mxCell id="PFHBbTJMaF5WKpqHNHb6-39" value="" style="shape=cylinder3;whiteSpace=wrap;html=1;boundedLbl=1;backgroundOutline=1;size=15;" vertex="1" parent="1">
          <mxGeometry x="600" y="613.33" width="50" height="66.67" as="geometry" />
        </mxCell>
        <mxCell id="PFHBbTJMaF5WKpqHNHb6-40" value="" style="endArrow=none;dashed=1;html=1;rounded=0;" edge="1" parent="1" source="PFHBbTJMaF5WKpqHNHb6-32" target="PFHBbTJMaF5WKpqHNHb6-39">
          <mxGeometry width="50" height="50" relative="1" as="geometry">
            <mxPoint x="618" y="522" as="sourcePoint" />
            <mxPoint x="590" y="430" as="targetPoint" />
          </mxGeometry>
        </mxCell>
        <mxCell id="PFHBbTJMaF5WKpqHNHb6-43" value="" style="endArrow=none;dashed=1;html=1;rounded=0;" edge="1" parent="1" source="PFHBbTJMaF5WKpqHNHb6-33" target="PFHBbTJMaF5WKpqHNHb6-39">
          <mxGeometry width="50" height="50" relative="1" as="geometry">
            <mxPoint x="618" y="522" as="sourcePoint" />
            <mxPoint x="590" y="430" as="targetPoint" />
          </mxGeometry>
        </mxCell>
        <mxCell id="PFHBbTJMaF5WKpqHNHb6-44" value="" style="endArrow=none;dashed=1;html=1;rounded=0;" edge="1" parent="1" source="PFHBbTJMaF5WKpqHNHb6-31" target="PFHBbTJMaF5WKpqHNHb6-39">
          <mxGeometry width="50" height="50" relative="1" as="geometry">
            <mxPoint x="618" y="522" as="sourcePoint" />
            <mxPoint x="590" y="430" as="targetPoint" />
          </mxGeometry>
        </mxCell>
        <mxCell id="PFHBbTJMaF5WKpqHNHb6-45" value="Clone" style="endArrow=classic;html=1;rounded=0;" edge="1" parent="1" source="PFHBbTJMaF5WKpqHNHb6-28" target="PFHBbTJMaF5WKpqHNHb6-34">
          <mxGeometry width="50" height="50" relative="1" as="geometry">
            <mxPoint x="770" y="490" as="sourcePoint" />
            <mxPoint x="820" y="440" as="targetPoint" />
          </mxGeometry>
        </mxCell>
        <mxCell id="PFHBbTJMaF5WKpqHNHb6-46" value="AciesOne" style="text;html=1;strokeColor=none;fillColor=none;align=left;verticalAlign=middle;whiteSpace=wrap;rounded=0;fontSize=20;horizontal=0;spacingLeft=20;" vertex="1" parent="1">
          <mxGeometry x="200" y="80" width="30" height="140" as="geometry" />
        </mxCell>
        <mxCell id="PFHBbTJMaF5WKpqHNHb6-47" value="AciesCore" style="text;html=1;strokeColor=none;fillColor=none;align=right;verticalAlign=middle;whiteSpace=wrap;rounded=0;fontSize=20;horizontal=0;spacingRight=20;" vertex="1" parent="1">
          <mxGeometry x="200" y="220" width="30" height="140" as="geometry" />
        </mxCell>
        <mxCell id="PFHBbTJMaF5WKpqHNHb6-48" value="" style="endArrow=none;dashed=1;html=1;rounded=0;" edge="1" parent="1" source="PFHBbTJMaF5WKpqHNHb6-27" target="PFHBbTJMaF5WKpqHNHb6-1">
          <mxGeometry width="50" height="50" relative="1" as="geometry">
            <mxPoint x="510" y="130" as="sourcePoint" />
            <mxPoint x="530" y="110" as="targetPoint" />
          </mxGeometry>
        </mxCell>
        <mxCell id="PFHBbTJMaF5WKpqHNHb6-49" value="" style="endArrow=none;dashed=1;html=1;rounded=0;" edge="1" parent="1" source="PFHBbTJMaF5WKpqHNHb6-28" target="PFHBbTJMaF5WKpqHNHb6-10">
          <mxGeometry width="50" height="50" relative="1" as="geometry">
            <mxPoint x="510" y="130" as="sourcePoint" />
            <mxPoint x="530" y="110" as="targetPoint" />
          </mxGeometry>
        </mxCell>
        <mxCell id="PFHBbTJMaF5WKpqHNHb6-50" value="" style="endArrow=none;dashed=1;html=1;rounded=0;" edge="1" parent="1" source="PFHBbTJMaF5WKpqHNHb6-34" target="PFHBbTJMaF5WKpqHNHb6-13">
          <mxGeometry width="50" height="50" relative="1" as="geometry">
            <mxPoint x="510" y="130" as="sourcePoint" />
            <mxPoint x="530" y="110" as="targetPoint" />
          </mxGeometry>
        </mxCell>
        <mxCell id="PFHBbTJMaF5WKpqHNHb6-51" value="AciesOne Testing Environments in AciesCore" style="text;html=1;strokeColor=none;fillColor=none;align=center;verticalAlign=middle;whiteSpace=wrap;rounded=0;fontSize=20;horizontal=1;spacingLeft=0;" vertex="1" parent="1">
          <mxGeometry x="200" y="40" width="920" height="40" as="geometry" />
        </mxCell>
        <mxCell id="PFHBbTJMaF5WKpqHNHb6-52" value="Cloned via /bom/engines/{id}/clone" style="shape=note;whiteSpace=wrap;html=1;backgroundOutline=1;darkOpacity=0.05;size=16;align=left;" vertex="1" parent="1">
          <mxGeometry x="773.5" y="515" width="133" height="50" as="geometry" />
        </mxCell>
        <mxCell id="PFHBbTJMaF5WKpqHNHb6-53" value="" style="endArrow=none;dashed=1;html=1;dashPattern=1 3;strokeWidth=2;rounded=0;" edge="1" parent="1" source="PFHBbTJMaF5WKpqHNHb6-34" target="PFHBbTJMaF5WKpqHNHb6-52">
          <mxGeometry width="50" height="50" relative="1" as="geometry">
            <mxPoint x="770" y="490" as="sourcePoint" />
            <mxPoint x="820" y="440" as="targetPoint" />
          </mxGeometry>
        </mxCell>
        <mxCell id="PFHBbTJMaF5WKpqHNHb6-54" value="" style="endArrow=classic;html=1;rounded=0;dashed=1;" edge="1" parent="1" source="PFHBbTJMaF5WKpqHNHb6-33" target="PFHBbTJMaF5WKpqHNHb6-35">
          <mxGeometry width="50" height="50" relative="1" as="geometry">
            <mxPoint x="770" y="490" as="sourcePoint" />
            <mxPoint x="820" y="440" as="targetPoint" />
          </mxGeometry>
        </mxCell>
        <mxCell id="PFHBbTJMaF5WKpqHNHb6-55" value="" style="endArrow=none;dashed=1;html=1;dashPattern=1 3;strokeWidth=2;rounded=0;" edge="1" parent="1" source="PFHBbTJMaF5WKpqHNHb6-35" target="PFHBbTJMaF5WKpqHNHb6-52">
          <mxGeometry width="50" height="50" relative="1" as="geometry">
            <mxPoint x="770" y="490" as="sourcePoint" />
            <mxPoint x="820" y="440" as="targetPoint" />
          </mxGeometry>
        </mxCell>
      </root>
    </mxGraphModel>
  </diagram>
</mxfile>
